<svg width="200" height="200" viewBox="0 0 200 200" xmlns="http://www.w3.org/2000/svg">
  <!-- Fond du logo avec gradient -->
  <defs>
    <linearGradient id="bgGradient" x1="0%" y1="0%" x2="100%" y2="100%">
      <stop offset="0%" style="stop-color:#667eea;stop-opacity:1" />
      <stop offset="100%" style="stop-color:#764ba2;stop-opacity:1" />
    </linearGradient>
    
    <linearGradient id="textGradient" x1="0%" y1="0%" x2="100%" y2="100%">
      <stop offset="0%" style="stop-color:#ffffff;stop-opacity:1" />
      <stop offset="100%" style="stop-color:#f0f0f0;stop-opacity:1" />
    </linearGradient>
    
    <filter id="shadow" x="-50%" y="-50%" width="200%" height="200%">
      <feDropShadow dx="0" dy="4" stdDeviation="8" flood-color="#000000" flood-opacity="0.2"/>
    </filter>
  </defs>
  
  <!-- Cercle de fond -->
  <circle cx="100" cy="100" r="90" fill="url(#bgGradient)" filter="url(#shadow)"/>
  
  <!-- Lettre B stylisée -->
  <path d="M 50 50 L 50 150 L 110 150 Q 135 150 135 125 Q 135 112.5 125 106.25 Q 140 100 140 80 Q 140 50 110 50 Z M 70 70 L 105 70 Q 115 70 115 80 Q 115 90 105 90 L 70 90 Z M 70 110 L 110 110 Q 125 110 125 125 Q 125 135 110 135 L 70 135 Z" 
        fill="url(#textGradient)" 
        stroke="#ffffff" 
        stroke-width="1"/>
  
  <!-- Accent décoratif -->
  <circle cx="145" cy="65" r="8" fill="#ffd700" opacity="0.8"/>
  <circle cx="155" cy="55" r="4" fill="#ffd700" opacity="0.6"/>
  <circle cx="135" cy="75" r="3" fill="#ffd700" opacity="0.4"/>
</svg>